# Blender 3.6.1
# www.blender.org
mtllib baking_pan_container_lid_mask.mtl
g baking_pan_container_baking_pan_container.004
v -66.851456 49.946037 75.041084
v -55.699059 49.998486 77.587112
v -77.668671 49.998657 55.960266
v -75.090324 49.945946 66.820892
v 55.855785 49.998589 77.946396
v 75.041084 49.946037 66.851456
v 77.701294 49.998692 56.083759
v 66.820892 49.945946 75.090324
v 77.668671 49.998650 -55.960274
v 66.851456 49.946030 -75.041084
v 56.051388 49.998600 -78.213020
v 75.090324 49.945938 -66.820892
v -55.960270 49.998646 -77.668671
v -75.041084 49.946030 -66.851456
v -77.904404 49.998650 -55.983170
v -66.820892 49.945938 -75.090324
v -56.024025 49.998615 77.991692
v 56.256050 49.998486 77.587112
vn 0.0036 0.0003 1.0000
vn -1.0000 -0.0000 0.0036
vn 0.7442 -0.0002 -0.6680
vn -0.0000 1.0000 -0.0000
vn 0.0005 1.0000 -0.0004
vn 0.0004 1.0000 -0.0004
vn 0.0006 1.0000 -0.0009
vn 0.0006 1.0000 -0.0010
vn -0.0003 1.0000 -0.0003
vn -0.0006 1.0000 -0.0004
vn -0.0006 1.0000 -0.0003
vn -0.0004 1.0000 0.0003
vn -0.0003 1.0000 0.0004
vn -0.0005 1.0000 0.0007
vn -0.0004 1.0000 0.0007
vn 0.0005 1.0000 0.0003
vn 0.0003 1.0000 0.0005
vn 0.0004 1.0000 0.0004
vn 0.0003 1.0000 0.0004
vt 0.000000 0.000000
s 0
usemtl DEFAULT_MTL.004
f 17/1/1 18/1/2 5/1/3
f 7/1/4 9/1/4 11/1/4
f 9/1/5 12/1/6 11/1/6
f 12/1/7 10/1/8 11/1/8
f 11/1/4 13/1/4 15/1/4
f 13/1/9 16/1/9 15/1/9
f 16/1/10 14/1/10 15/1/11
f 15/1/4 3/1/4 17/1/4
f 3/1/12 4/1/12 17/1/13
f 4/1/14 1/1/15 17/1/15
f 8/1/16 6/1/16 7/1/16
f 8/1/17 7/1/18 5/1/19
f 7/1/4 11/1/4 5/1/4
f 11/1/4 15/1/4 17/1/4
f 11/1/4 17/1/4 5/1/4
l 2 17
